<?xml version="1.0" encoding="UTF-8" standalone="no"?>
<!DOCTYPE svg PUBLIC "-//W3C//DTD SVG 1.1//EN" "http://www.w3.org/Graphics/SVG/1.1/DTD/svg11.dtd">
<svg width="100%" height="100%" viewBox="0 0 758 717" version="1.1" xmlns="http://www.w3.org/2000/svg" xmlns:xlink="http://www.w3.org/1999/xlink" xml:space="preserve" xmlns:serif="http://www.serif.com/" style="fill-rule:evenodd;clip-rule:evenodd;stroke-linejoin:round;stroke-miterlimit:2;">
    <g transform="matrix(1,0,0,1,-135.189014,-169.632633)">
        <g id="Icon" transform="matrix(2.488637,0,0,2.488637,-863.092361,-161.239746)">
            <g transform="matrix(1,-0,0,1,1.781408,-104.083162)">
                <path d="M454.962,523.935C455.839,523.059 459.052,523.059 459.928,523.059C467.23,523.059 474.24,520.722 481.25,519.554C489.721,518.093 498.191,516.633 506.662,515.173C510.167,514.588 513.38,512.252 512.504,508.747C512.504,507.578 511.627,506.702 511.335,505.534C508.122,498.816 496.147,460.552 494.102,453.542C499.652,453.834 533.826,456.171 539.376,456.171C541.128,456.171 542.881,455.002 543.465,453.25C546.094,450.329 545.802,438.061 546.094,434.264C546.97,424.625 548.431,414.986 548.431,405.347C548.431,403.011 546.094,400.966 543.757,400.966C524.187,399.798 504.909,398.922 485.34,397.461C485.047,397.461 485.047,396.585 485.047,396.001C483.295,388.698 481.25,381.396 479.206,374.386C481.25,375.262 483.587,374.97 485.632,374.678C499.944,372.634 514.256,370.589 528.569,369.421C537.331,368.836 545.802,368.836 554.564,368.836C558.361,368.836 560.406,364.455 557.777,361.534C557.777,355.108 561.282,320.934 562.159,314.508C563.911,311.879 562.743,308.666 559.822,307.498C558.654,306.038 556.025,305.745 554.272,306.038C545.218,306.622 492.642,311.879 483.879,313.048C472.78,314.508 424.877,322.102 414.07,320.35C411.733,319.766 409.689,321.226 409.105,323.271C407.06,325.607 407.936,329.405 409.105,332.033C416.407,351.603 420.496,372.049 424.877,392.204C431.595,424.625 437.729,457.339 442.403,490.345C443.279,497.939 444.447,505.826 446.492,513.42C447.368,516.341 447.076,519.262 447.952,521.891C449.121,524.811 452.626,525.688 454.962,523.935Z" style="fill:rgb(0,142,248);stroke:rgb(0,142,248);stroke-width:0.4px;"/>
            </g>
            <g id="not-left-or-right" serif:id="not left or right" transform="matrix(-1.012302,0.09483,-0.09483,-1.012302,911.93459,783.937794)">
                <g transform="matrix(-0.55449,0,-0,-0.966382,311.374354,986.367919)">
                    <path d="M275.24,435.303C276.642,435.224 278.036,435.489 279.079,436.031C280.123,436.574 280.718,437.345 280.718,438.153C280.718,447.397 280.718,474.324 280.718,483.569C280.718,484.377 280.123,485.147 279.079,485.69C278.036,486.233 276.641,486.497 275.239,486.418C248.2,484.891 129.298,478.176 104.603,476.781C102.049,476.637 100.102,475.405 100.102,473.932C100.102,468.033 100.102,453.675 100.102,447.776C100.102,446.303 102.05,445.07 104.604,444.926C129.301,443.533 248.203,436.828 275.24,435.303Z" style="fill:rgb(222,104,0);stroke:rgb(222,104,0);stroke-width:0.5px;stroke-linecap:round;stroke-miterlimit:1.5;"/>
                </g>
                <g transform="matrix(-0.448564,0.325959,-0.568092,-0.781772,572.983982,910.169566)">
                    <path d="M275.24,435.303C276.642,435.224 278.036,435.489 279.079,436.031C280.123,436.574 280.718,437.345 280.718,438.153C280.718,447.397 280.718,474.324 280.718,483.569C280.718,484.377 280.123,485.147 279.079,485.69C278.036,486.233 276.641,486.497 275.239,486.418C248.2,484.891 129.298,478.176 104.603,476.781C102.049,476.637 100.102,475.405 100.102,473.932C100.102,468.033 100.102,453.675 100.102,447.776C100.102,446.303 102.05,445.07 104.604,444.926C129.301,443.533 248.203,436.828 275.24,435.303Z" style="fill:rgb(74,227,0);stroke:rgb(73,227,0);stroke-width:0.5px;stroke-linecap:round;stroke-miterlimit:1.5;"/>
                </g>
                <g transform="matrix(-0.44862,-0.325883,-0.567959,0.781868,572.959987,171.302645)">
                    <path d="M275.24,435.303C276.642,435.224 278.036,435.489 279.079,436.031C280.123,436.574 280.718,437.345 280.718,438.153C280.718,447.397 280.718,474.324 280.718,483.569C280.718,484.377 280.123,485.147 279.079,485.69C278.036,486.233 276.641,486.497 275.239,486.418C248.2,484.891 129.298,478.176 104.603,476.781C102.049,476.637 100.102,475.405 100.102,473.932C100.102,468.033 100.102,453.675 100.102,447.776C100.102,446.303 102.05,445.07 104.604,444.926C129.301,443.533 248.203,436.828 275.24,435.303Z" style="fill:rgb(200,0,224);stroke:rgb(200,0,225);stroke-width:0.5px;stroke-linecap:round;stroke-miterlimit:1.5;"/>
                </g>
            </g>
            <g id="Ears-cyan-sug" serif:id="Ears cyan sug" transform="matrix(1,0,0,1,23.746741,-227.968711)">
                <g transform="matrix(0.775987,-0.056781,0.056781,0.775987,58.858038,126.038662)">
                    <path d="M398.725,390.37C398.105,393.26 397.85,397.159 397.823,397.712C397.288,408.681 398.694,421.395 398.921,423.443C401.082,442.981 404.047,453.358 404.054,453.462C404.114,454.351 404.346,455.246 404.233,456.13C404.182,456.536 403.885,458.869 401.711,460.569C399.468,462.324 397.059,462.018 396.642,461.965C393.904,461.618 392.455,459.765 392.203,459.443C391.048,457.968 391.204,457.872 390.714,456.062C390.189,454.127 388.077,446.335 385.659,431.518C385.057,427.826 383.247,415.948 382.512,406.452C382.097,401.099 381.827,393.793 382.296,388.922C382.637,385.384 383.553,375.991 391.348,372.968C391.42,372.94 392.625,372.276 396.839,372.014C404.223,371.556 421.963,372.342 450.412,398.361C468.196,414.627 482.942,433.782 485.646,437.106L451.465,460.033C451.465,460.033 437.998,428.105 421.592,407.988C416.868,402.196 408.228,392.688 398.725,390.37Z" style="fill:rgb(0,142,248);stroke:rgb(0,142,248);stroke-width:0.52px;"/>
                </g>
                <g transform="matrix(-0.77973,0.218909,0.218909,0.77973,745.235936,-8.602758)">
                    <path d="M398.729,390.358C403.052,391.419 406.789,393.978 407.466,394.442C412.503,397.892 421.375,405.195 433.944,425.686C439.245,434.328 445.454,447.199 445.454,447.199L485.227,436.595C485.227,436.595 461.551,406.093 439.461,389.132C414.817,370.211 399.99,371.589 394.192,372.259C391.439,372.577 386.041,374.329 383.613,381.865C383.11,383.426 381.296,388.831 382.402,404.951C382.519,406.645 382.988,413.488 384.814,426.04C387.369,443.605 392.353,461.879 392.59,462.347C392.993,463.142 405.868,459.634 405.43,457.888C403.136,448.749 398.723,426.786 397.951,411.413C397.646,405.343 397.415,396.356 398.729,390.358Z" style="fill:rgb(0,142,248);stroke:rgb(0,142,248);stroke-width:0.5px;"/>
                </g>
            </g>
        </g>
    </g>
</svg>
