<?xml version="1.0" encoding="UTF-8" standalone="no"?>
<!DOCTYPE svg PUBLIC "-//W3C//DTD SVG 1.1//EN" "http://www.w3.org/Graphics/SVG/1.1/DTD/svg11.dtd">
<svg width="100%" height="100%" viewBox="0 0 1920 610" version="1.1" xmlns="http://www.w3.org/2000/svg" xmlns:xlink="http://www.w3.org/1999/xlink" xml:space="preserve" xmlns:serif="http://www.serif.com/" style="fill-rule:evenodd;clip-rule:evenodd;stroke-linejoin:round;stroke-miterlimit:2;">
    <g id="Final" transform="matrix(1.667864,0,0,1.667864,-630.198905,-490.285563)">
        <g id="FURATIC-B" serif:id="FURATIC B" transform="matrix(0.99967,-0.025702,0.025702,0.99967,-29.693687,134.469807)">
            <g transform="matrix(0.99967,0.025702,-0.025702,0.99967,7.997836,-10.382129)">
                <path d="M454.962,523.935C455.839,523.059 459.052,523.059 459.928,523.059C467.23,523.059 474.24,520.722 481.25,519.554C489.721,518.093 498.191,516.633 506.662,515.173C510.167,514.588 513.38,512.252 512.504,508.747C512.504,507.578 511.627,506.702 511.335,505.534C508.122,498.816 496.147,460.552 494.102,453.542C499.652,453.834 533.826,456.171 539.376,456.171C541.128,456.171 542.881,455.002 543.465,453.25C546.094,450.329 545.802,438.061 546.094,434.264C546.97,424.625 548.431,414.986 548.431,405.347C548.431,403.011 546.094,400.966 543.757,400.966C524.187,399.798 504.909,398.922 485.34,397.461C485.047,397.461 485.047,396.585 485.047,396.001C483.295,388.698 481.25,381.396 479.206,374.386C481.25,375.262 483.587,374.97 485.632,374.678C499.944,372.634 514.256,370.589 528.569,369.421C537.331,368.836 545.802,368.836 554.564,368.836C558.361,368.836 560.406,364.455 557.777,361.534C557.777,355.108 561.282,320.934 562.159,314.508C563.911,311.879 562.743,308.666 559.822,307.498C558.654,306.038 556.025,305.745 554.272,306.038C545.218,306.622 492.642,311.879 483.879,313.048C472.78,314.508 424.877,322.102 414.07,320.35C411.733,319.766 409.689,321.226 409.105,323.271C407.06,325.607 407.936,329.405 409.105,332.033C416.407,351.603 420.496,372.049 424.877,392.204C431.595,424.625 437.729,457.339 442.403,490.345C443.279,497.939 444.447,505.826 446.492,513.42C447.368,516.341 447.076,519.262 447.952,521.891C449.121,524.811 452.626,525.688 454.962,523.935Z" style="fill:rgb(0,142,248);stroke:rgb(0,142,248);stroke-width:0.6px;"/>
            </g>
            <path d="M694.767,533.866C710.831,526.272 724.56,512.544 732.738,497.063C744.129,474.572 750.847,449.745 754.645,424.625C756.105,413.526 756.689,401.842 756.689,390.451C756.689,387.53 756.105,372.926 755.521,370.005C754.937,367.376 752.6,365.331 749.971,365.624C749.095,364.455 747.634,363.871 746.466,363.579C742.961,362.995 724.56,362.995 721.054,362.995C719.302,362.995 712,362.995 710.247,363.579C707.911,362.411 704.99,363.287 703.821,365.916C703.529,367.084 702.945,372.634 702.945,373.802C702.069,396.001 702.361,418.491 696.811,440.106C694.474,450.037 690.385,459.968 683.375,467.562C678.994,471.944 673.736,475.741 667.602,477.493C666.434,477.785 662.345,478.662 661.176,478.369C655.627,476.909 650.369,474.864 645.988,471.359C643.359,469.023 641.022,466.102 639.562,462.597C637.225,457.047 636.641,450.913 636.933,445.071C637.517,434.556 640.438,424.333 643.943,414.402C649.785,399.214 657.963,384.609 667.018,370.881C667.31,370.297 667.894,370.005 668.479,369.421C669.063,368.544 669.647,365.039 669.647,363.871C669.647,358.905 660.884,355.985 656.503,354.232C646.28,350.143 635.765,346.93 625.542,343.133C624.373,342.549 619.408,340.212 618.24,339.92C615.903,339.628 611.814,341.38 610.353,343.425C609.477,344.885 603.927,354.524 603.051,356.277C593.412,373.802 584.649,392.496 579.684,411.773C575.011,431.051 572.674,451.789 577.055,471.067C581.144,489.177 590.783,506.994 604.511,519.554C617.363,531.237 635.473,538.247 652.706,540C666.726,541.46 681.915,539.708 694.767,533.866Z" style="fill:rgb(0,142,248);stroke:rgb(0,142,248);stroke-width:0.6px;"/>
            <g transform="matrix(1,0,0,1,-0.077105,2.999009)">
                <path d="M900.981,525.98C901.273,525.688 904.194,524.811 904.778,524.811C915.293,523.351 926.392,520.43 934.279,513.712C936.323,512.252 936.615,507.286 934.863,505.242C932.818,502.905 920.258,490.345 918.214,488.008C905.654,473.988 893.678,459.384 883.163,443.903C895.139,438.938 906.53,431.635 915.293,421.996C920.551,416.739 925.224,410.313 927.561,403.303C930.774,393.664 932.818,383.733 931.942,373.802C930.482,360.95 926.976,348.098 919.966,337.291C917.63,333.202 915.001,329.113 911.204,326.192C905.946,322.394 899.52,320.35 893.094,318.889C883.163,316.845 873.232,316.553 863.301,315.969C847.236,314.8 831.172,314.508 815.399,314.508C813.938,314.8 806.928,315.384 805.468,315.092C804.007,314.8 802.547,315.384 801.379,316.553C800.502,317.429 799.042,318.013 798.458,319.182C797.582,320.642 796.705,328.236 796.413,329.989C795.829,332.033 792.908,342.841 792.324,344.593C780.348,391.327 777.72,440.398 778.888,488.593C779.18,498.816 779.472,508.747 780.64,518.97C781.225,521.891 785.022,523.643 787.943,523.935C798.75,525.396 809.557,525.104 820.364,524.519C821.533,524.519 827.959,523.643 829.127,523.643C832.048,523.351 834.385,520.722 833.8,517.801C833.508,514.88 832.924,511.667 832.924,508.455C831.172,490.345 830.587,472.236 830.295,454.126C847.236,476.033 860.965,500.568 877.906,522.475C879.074,523.935 879.95,525.98 881.703,526.564C884.916,527.732 897.476,526.272 900.981,525.98ZM834.677,399.506C834.969,393.08 839.642,360.95 840.811,354.816C848.405,355.108 856.291,355.4 863.593,357.737C868.559,359.198 873.816,362.118 876.737,366.5C883.163,375.554 884.04,388.991 875.277,396.001C870.603,399.506 864.762,400.966 858.92,401.55C850.742,402.427 842.563,401.55 834.677,399.506Z" style="fill:rgb(0,142,248);stroke:rgb(0,142,248);stroke-width:0.6px;"/>
            </g>
            <path d="M1095.219,542.045C1096.972,541.753 1105.442,540.292 1107.195,539.708C1109.239,539.124 1110.408,536.787 1109.824,534.742C1109.531,532.99 1108.947,524.519 1108.655,522.767C1106.026,501.444 1105.734,479.538 1101.645,458.215C1097.848,439.23 1092.59,420.536 1087.333,401.842C1084.12,390.159 1079.738,378.767 1074.481,367.96C1072.436,363.871 1068.055,354.816 1063.382,354.232C1049.361,352.772 1034.465,350.435 1020.737,354.232C1018.108,354.816 1011.974,356.861 1010.806,358.905C1010.514,359.49 1007.885,362.118 1007.593,362.703C1007.593,362.995 1007.009,364.747 1007.009,365.039C1001.459,372.926 997.078,381.688 992.696,390.159C982.473,411.189 973.126,432.804 965.824,454.71C958.23,478.662 952.68,503.197 948.007,527.732C947.715,530.361 949.175,532.698 951.804,532.99C953.556,536.787 962.611,538.832 966.408,539.708C978.092,542.337 990.652,542.337 1002.627,541.168C1003.796,541.168 1004.672,539.708 1005.548,539.416C1007.593,538.832 1008.761,536.787 1008.469,534.45C1007.593,529.193 1010.514,506.118 1011.39,500.86L1052.574,500.86C1053.158,505.534 1055.787,533.282 1056.664,537.955C1057.248,540.584 1059.876,542.045 1062.505,541.168C1068.055,543.505 1089.377,542.629 1095.219,542.045ZM1028.623,468.438C1024.826,468.731 1020.737,469.023 1016.94,469.315C1021.613,448.869 1027.163,428.714 1035.633,409.729C1040.891,429.299 1044.98,449.453 1047.901,469.315C1041.475,468.731 1035.049,468.438 1028.623,468.438Z" style="fill:rgb(0,142,248);stroke:rgb(0,142,248);stroke-width:0.6px;"/>
            <path d="M1211.178,538.54C1212.931,537.663 1214.975,536.787 1216.144,535.327C1219.064,534.158 1219.941,530.653 1217.896,528.316C1214.099,505.534 1211.762,482.167 1210.594,458.8C1209.133,431.635 1208.549,403.887 1210.01,376.723C1229.287,376.431 1248.857,377.015 1268.135,378.183C1270.764,378.475 1273.393,375.554 1273.393,372.926C1273.101,367.084 1273.101,361.242 1273.393,355.4C1273.685,352.48 1274.561,334.954 1274.561,332.033C1274.561,329.989 1273.393,328.236 1271.64,327.652C1269.596,325.607 1266.091,325.607 1263.462,325.607C1250.61,324.731 1237.758,324.147 1224.906,324.147C1210.01,324.147 1195.113,325.315 1180.217,325.023C1157.142,324.731 1134.359,322.979 1111.284,322.979C1108.947,322.979 1107.487,324.147 1106.611,326.484C1105.734,327.36 1105.15,328.82 1105.15,330.281C1104.566,337.291 1103.982,344.593 1103.69,351.895C1103.69,358.613 1103.982,365.331 1104.274,372.049C1104.274,374.97 1106.611,377.015 1109.239,376.723C1117.71,375.262 1155.681,374.678 1164.152,375.262C1162.107,396.293 1152.468,507.87 1153.053,528.901C1153.053,529.777 1154.221,530.653 1154.221,531.822C1154.221,536.203 1160.939,537.955 1165.028,538.832C1173.791,540.584 1203,541.46 1211.178,538.54Z" style="fill:rgb(0,142,248);stroke:rgb(0,142,248);stroke-width:0.6px;"/>
            <g transform="matrix(-0.998679,-0.051387,-0.051387,0.998679,2679.0726,68.879698)">
                <path d="M1327.429,554.896C1332.102,552.852 1355.469,549.639 1360.435,548.763C1364.232,548.178 1373.871,547.886 1375.624,544.381C1376.5,543.213 1376.792,539.124 1376.5,537.663C1376.208,536.787 1375.624,530.653 1375.331,529.485C1368.029,467.27 1363.064,404.763 1351.964,343.133C1351.672,341.672 1351.672,340.212 1351.088,338.751C1349.92,336.999 1347.583,336.123 1345.538,336.415C1344.662,336.707 1340.573,338.167 1339.697,338.459C1332.687,340.212 1297.636,349.267 1290.334,349.851C1288.873,350.143 1287.121,350.143 1285.66,350.143C1283.032,350.143 1280.987,352.48 1281.279,355.108C1281.863,357.445 1286.829,369.129 1287.705,371.465C1299.973,407.392 1306.107,445.364 1311.656,483.043C1314.869,505.242 1316.622,527.732 1318.082,550.223C1318.082,552.852 1319.543,554.312 1322.171,554.604C1324.216,556.065 1325.092,556.065 1327.429,554.896Z" style="fill:rgb(0,142,248);stroke:rgb(0,142,248);stroke-width:0.6px;"/>
            </g>
            <path d="M1526.049,550.223C1528.97,549.639 1531.891,547.886 1533.351,545.258C1536.272,540.584 1537.148,519.846 1537.732,514.004C1537.732,513.712 1537.148,511.96 1537.44,511.667C1537.732,509.039 1538.024,506.118 1537.148,503.489C1536.272,501.444 1533.643,499.692 1531.306,499.692C1528.386,499.4 1513.197,499.692 1510.276,499.984C1497.716,500.276 1484.572,500.568 1472.305,497.355C1465.587,495.895 1459.161,492.682 1453.903,488.593C1449.814,485.38 1446.893,480.706 1445.725,476.033C1444.556,471.651 1443.972,466.978 1443.68,462.597C1443.388,449.453 1445.433,436.017 1450.398,423.749C1452.735,417.323 1456.824,411.189 1462.082,406.516C1464.71,404.179 1475.225,402.427 1478.731,402.427C1495.38,401.842 1511.444,408.268 1527.217,413.526C1530.43,414.694 1533.935,413.526 1534.227,410.313C1535.396,404.179 1546.495,371.173 1548.247,365.039C1550.584,362.995 1550.584,359.49 1547.663,358.029C1547.371,357.737 1545.035,356.861 1544.742,356.569C1532.767,351.895 1520.207,348.098 1507.355,347.222C1498.885,346.638 1490.414,347.806 1481.944,349.267C1465.587,351.311 1448.938,358.029 1436.378,368.544C1426.155,377.015 1416.808,387.238 1410.09,398.629C1398.406,418.199 1391.688,441.858 1393.149,464.641C1393.733,476.033 1395.778,487.716 1400.451,498.231C1407.461,514.588 1420.313,529.193 1435.502,538.247C1443.096,542.629 1451.566,545.842 1460.037,547.302C1470.844,549.055 1515.534,552.268 1526.049,550.223Z" style="fill:rgb(0,142,248);stroke:rgb(0,142,248);stroke-width:0.6px;"/>
        </g>
        <g id="not-left-or-right" serif:id="not left or right" transform="matrix(-0.278626,0.977811,-0.977811,-0.278626,1938.562709,300.82866)">
            <g transform="matrix(-0.55449,0,-0,-0.966382,311.374354,986.367919)">
                <path d="M272.544,435.455C274.635,435.337 276.716,435.732 278.273,436.542C279.83,437.352 280.718,438.501 280.718,439.707C280.718,449.546 280.718,472.174 280.718,482.014C280.718,483.22 279.83,484.37 278.273,485.18C276.716,485.989 274.635,486.384 272.543,486.266C241.984,484.54 134.789,478.486 106.819,476.906C103.007,476.691 100.102,474.852 100.102,472.655C100.102,466.63 100.102,455.078 100.102,449.053C100.102,446.855 103.008,445.016 106.82,444.801C134.792,443.224 241.987,437.179 272.544,435.455Z" style="fill:rgb(222,104,0);stroke:rgb(222,104,0);stroke-width:0.75px;stroke-linecap:round;stroke-miterlimit:1.5;"/>
            </g>
            <g transform="matrix(-0.448564,0.325959,-0.568092,-0.781772,572.983982,910.169566)">
                <path d="M272.544,435.455C274.635,435.337 276.716,435.732 278.273,436.542C279.83,437.352 280.718,438.501 280.718,439.707C280.718,449.546 280.718,472.174 280.718,482.014C280.718,483.22 279.83,484.37 278.273,485.18C276.716,485.989 274.635,486.384 272.543,486.266C241.984,484.54 134.789,478.486 106.819,476.906C103.007,476.691 100.102,474.852 100.102,472.655C100.102,466.63 100.102,455.078 100.102,449.053C100.102,446.855 103.008,445.016 106.82,444.801C134.792,443.224 241.987,437.179 272.544,435.455Z" style="fill:rgb(74,227,0);stroke:rgb(74,227,0);stroke-width:0.75px;stroke-linecap:round;stroke-miterlimit:1.5;"/>
            </g>
            <g transform="matrix(-0.44862,-0.325883,-0.567959,0.781868,572.959987,171.302645)">
                <path d="M272.544,435.455C274.635,435.337 276.716,435.732 278.273,436.542C279.83,437.352 280.718,438.501 280.718,439.707C280.718,449.546 280.718,472.174 280.718,482.014C280.718,483.22 279.83,484.37 278.273,485.18C276.716,485.989 274.635,486.384 272.543,486.266C241.984,484.54 134.789,478.486 106.819,476.906C103.007,476.691 100.102,474.852 100.102,472.655C100.102,466.63 100.102,455.078 100.102,449.053C100.102,446.855 103.008,445.016 106.82,444.801C134.792,443.224 241.987,437.179 272.544,435.455Z" style="fill:rgb(200,0,225);stroke:rgb(200,0,225);stroke-width:0.75px;stroke-linecap:round;stroke-miterlimit:1.5;"/>
            </g>
        </g>
        <g id="Ears-cyan-sug" serif:id="Ears cyan sug">
            <g transform="matrix(0.997334,-0.072977,0.072977,0.997334,-31.801012,41.076182)">
                <path d="M398.725,390.37C398.105,393.26 397.85,397.159 397.823,397.712C397.288,408.681 398.694,421.395 398.921,423.443C401.082,442.981 404.047,453.358 404.054,453.462C404.114,454.351 404.346,455.246 404.233,456.13C404.182,456.536 403.885,458.869 401.711,460.569C399.468,462.324 397.059,462.018 396.642,461.965C393.904,461.618 392.455,459.765 392.203,459.443C391.048,457.968 391.204,457.872 390.714,456.062C390.189,454.127 388.077,446.335 385.659,431.518C385.057,427.826 383.247,415.948 382.512,406.452C382.097,401.099 381.827,393.793 382.296,388.922C382.637,385.384 383.553,375.991 391.348,372.968C391.42,372.94 392.625,372.276 396.839,372.014C404.223,371.556 421.963,372.342 450.412,398.361C468.196,414.627 482.942,433.782 485.646,437.106L451.465,460.033C451.465,460.033 437.998,428.105 421.592,407.988C416.868,402.196 408.228,392.688 398.725,390.37Z" style="fill:rgb(0,142,248);stroke:rgb(0,142,248);stroke-width:0.6px;"/>
            </g>
            <g transform="matrix(-0.999704,0.024332,0.024332,0.999704,1281.097643,-15.62775)">
                <path d="M398.729,390.358C403.052,391.419 406.789,393.978 407.466,394.442C412.503,397.892 421.375,405.195 433.944,425.686C439.245,434.328 445.454,447.199 445.454,447.199L485.227,436.595C485.227,436.595 461.551,406.093 439.461,389.132C414.817,370.211 399.99,371.589 394.192,372.259C391.439,372.577 386.041,374.329 383.613,381.865C383.11,383.426 381.296,388.831 382.402,404.951C382.519,406.645 382.988,413.488 384.814,426.04C387.369,443.605 392.353,461.879 392.59,462.347C392.993,463.142 405.868,459.634 405.43,457.888C403.136,448.749 398.723,426.786 397.951,411.413C397.646,405.343 397.415,396.356 398.729,390.358Z" style="fill:rgb(0,142,248);stroke:rgb(0,142,248);stroke-width:0.6px;"/>
            </g>
        </g>
    </g>
</svg>
